HIERARCHY
ROOT Hips
{
    OFFSET 0.000000 0.000000 0.000000
    CHANNELS 6 Xposition Yposition Zposition Zrotation Xrotation Yrotation
    JOINT Spine
    {
        OFFSET -0.000000 8.022678 0.000000
        CHANNELS 3 Zrotation Xrotation Yrotation
        JOINT Spine1
        {
            OFFSET -0.000000 22.645252 0.000000
            CHANNELS 3 Zrotation Xrotation Yrotation
            JOINT Neck
            {
                OFFSET -0.000000 22.552252 2.050205
                CHANNELS 3 Zrotation Xrotation Yrotation
                JOINT Head
                {
                    OFFSET -0.000000 13.697254 -1.956751
                    CHANNELS 3 Zrotation Xrotation Yrotation
                    End Site
                    {
                        OFFSET -0.000000 24.459385 0.000000
                    }
                }
            }
            JOINT LeftShoulder
            {
                OFFSET 3.970073 20.470064 -0.180938
                CHANNELS 3 Zrotation Xrotation Yrotation
                JOINT LeftArm
                {
                    OFFSET 11.806412 0.000000 0.000000
                    CHANNELS 3 Zrotation Xrotation Yrotation
                    JOINT LeftForeArm
                    {
                        OFFSET 36.446327 0.000000 0.000000
                        CHANNELS 3 Zrotation Xrotation Yrotation
                        JOINT LeftHand
                        {
                            OFFSET 19.624075 0.000000 0.000000
                            CHANNELS 3 Zrotation Xrotation Yrotation
                            End Site
                            {
                                OFFSET 14.675631 0.000000 0.000000
                            }
                        }
                    }
                }
            }
            JOINT RightShoulder
            {
                OFFSET -3.853871 20.470064 -0.180938
                CHANNELS 3 Zrotation Xrotation Yrotation
                JOINT RightArm
                {
                    OFFSET -11.806412 0.000000 0.000000
                    CHANNELS 3 Zrotation Xrotation Yrotation
                    JOINT RightForeArm
                    {
                        OFFSET -36.446327 0.000000 0.000000
                        CHANNELS 3 Zrotation Xrotation Yrotation
                        JOINT RightHand
                        {
                            OFFSET -19.624075 0.000000 0.000000
                            CHANNELS 3 Zrotation Xrotation Yrotation
                            End Site
                            {
                                OFFSET -14.675631 0.000000 0.000000
                            }
                        }
                    }
                }
            }
        }
    }
    JOINT LeftUpLeg
    {
        OFFSET 9.783753 0.000000 0.000000
        CHANNELS 3 Zrotation Xrotation Yrotation
        JOINT LeftLeg
        {
            OFFSET -0.000000 -49.169243 0.000000
            CHANNELS 3 Zrotation Xrotation Yrotation
            JOINT LeftFoot
            {
                OFFSET -0.000000 -31.003439 0.000000
                CHANNELS 3 Zrotation Xrotation Yrotation
                JOINT LeftToeBase
                {
                    OFFSET -0.000000 -6.359439 14.675631
                    CHANNELS 3 Zrotation Xrotation Yrotation
                    End Site
                    {
                        OFFSET -0.000000 0.000000 3.913501
                    }
                }
            }
        }
    }
    JOINT RightUpLeg
    {
        OFFSET -9.783753 0.000000 0.000000
        CHANNELS 3 Zrotation Xrotation Yrotation
        JOINT RightLeg
        {
            OFFSET -0.000000 -49.169243 0.000000
            CHANNELS 3 Zrotation Xrotation Yrotation
            JOINT RightFoot
            {
                OFFSET -0.000000 -31.003439 0.000000
                CHANNELS 3 Zrotation Xrotation Yrotation
                JOINT RightToeBase
                {
                    OFFSET -0.000000 -6.359439 14.675631
                    CHANNELS 3 Zrotation Xrotation Yrotation
                    End Site
                    {
                        OFFSET -0.000000 0.000000 3.913501
                    }
                }
            }
        }
    }
}
MOTION
Frames:    7
Frame Time:    0.004000
-0.488653    91.857315    4.259133    -3.277589    1.320375    178.272751    -3.846955    -6.761874    -0.322739    3.728617    2.553585    -0.178332    -3.882476    13.756637    -5.328335    4.806793    -0.178028    -4.762612    13.980059    0.841869    -1.436497    -20.254667    6.175107    -5.328142    1.448240    -4.204281    -2.019024    5.313739    -4.085732    2.011713    -15.075645    1.463713    0.620421    13.923779    5.238467    10.143011    -2.099696    -1.379782    -2.768554    -1.742356    -1.574077    9.420447    -2.714907    8.575516    1.808472    -3.502630    -1.048561    -1.851337    3.693006    -6.471756    14.439530    0.000000    0.000000    0.000000    -9.628877    8.949339    4.851868    9.526385    -1.622717    -2.273520    -4.801868    -11.594173    -18.399059    0.000000    0.000000    0.000000    
-0.487916    91.856026    4.247236    -3.276866    1.332023    178.267944    -3.848902    -6.744769    -0.319149    3.729112    2.531263    -0.175172    -3.898665    13.755424    -5.379889    4.832625    -0.125876    -4.814343    13.982905    0.856648    -1.438033    -20.234146    6.169215    -5.332356    1.449752    -4.211795    -2.019776    5.302514    -4.093861    2.001505    -15.074807    1.463171    0.615920    13.918427    5.245229    10.148601    -2.099808    -1.380373    -2.775168    -1.722410    -1.573418    9.440622    -2.717054    8.595525    1.824609    -3.497839    -1.047799    -1.840060    3.673612    -6.491560    14.417459    0.000000    0.000000    0.000000    -9.629516    8.964277    4.868772    9.527854    -1.615011    -2.295462    -4.799366    -11.597846    -18.402946    0.000000    0.000000    0.000000    
-0.487055    91.854950    4.235170    -3.277072    1.339320    178.263687    -3.857319    -6.747406    -0.319734    3.738088    2.533476    -0.175082    -3.909943    13.763216    -5.427860    4.852174    -0.100001    -4.862621    13.983826    0.842543    -1.436318    -20.223135    6.178857    -5.328016    1.461919    -4.214603    -2.021691    5.274130    -4.097002    1.999795    -15.073849    1.470526    0.614715    13.915783    5.202827    10.161532    -2.100409    -1.372577    -2.776907    -1.707283    -1.564132    9.420840    -2.716781    8.614699    1.810856    -3.502913    -1.057934    -1.843536    3.684577    -6.492981    14.446598    0.000000    0.000000    0.000000    -9.629556    8.980135    4.862452    9.525143    -1.615427    -2.291312    -4.799180    -11.613031    -18.390104    0.000000    0.000000    0.000000    
-0.485596    91.853508    4.222906    -3.275360    1.347499    178.263519    -3.861001    -6.747638    -0.318893    3.742015    2.534285    -0.174371    -3.946929    13.796739    -5.477094    4.920759    -0.116345    -4.903759    13.992818    0.840944    -1.443904    -20.211237    6.182005    -5.322247    1.460073    -4.221833    -2.031936    5.255951    -4.104723    1.993899    -15.075431    1.477590    0.602582    13.912293    5.188967    10.175369    -2.093089    -1.374849    -2.773286    -1.712856    -1.566685    9.423585    -2.716909    8.631203    1.807981    -3.498088    -1.055857    -1.829178    3.673282    -6.501156    14.439505    0.000000    0.000000    0.000000    -9.628387    8.997450    4.860246    9.529422    -1.615056    -2.287348    -4.784947    -11.613276    -18.395149    0.000000    0.000000    0.000000    
-0.483248    91.852814    4.210228    -3.270442    1.354421    178.261902    -3.861536    -6.752994    -0.317482    3.741810    2.541425    -0.172377    -3.941453    13.810848    -5.530902    4.925857    -0.108615    -4.960066    14.011784    0.835149    -1.445014    -20.210663    6.183201    -5.326349    1.465106    -4.229675    -2.032371    5.262022    -4.112289    1.995777    -15.077570    1.467960    0.601922    13.913003    5.249661    10.165724    -2.108904    -1.399040    -2.755124    -1.677865    -1.587731    9.403514    -2.708561    8.648633    1.813835    -3.503307    -1.060251    -1.851828    3.690844    -6.506787    14.450009    0.000000    0.000000    0.000000    -9.621772    9.015845    4.865053    9.526426    -1.625809    -2.279949    -4.793865    -11.625723    -18.393856    0.000000    0.000000    0.000000    
-0.482911    91.851875    4.199358    -3.274288    1.358526    178.256378    -3.874939    -6.764318    -0.314749    3.758461    2.559626    -0.169774    -3.993280    13.799970    -5.587412    4.999105    -0.065244    -5.008690    14.017353    0.822382    -1.451097    -20.207018    6.174161    -5.318150    1.461286    -4.236198    -2.044135    5.254426    -4.118358    2.006427    -15.090676    1.476929    0.587636    13.916321    5.192354    10.185787    -2.095890    -1.384535    -2.758421    -1.697202    -1.574760    9.414858    -2.714813    8.656715    1.816768    -3.503970    -1.051234    -1.805458    3.710462    -6.504741    14.416600    0.000000    0.000000    0.000000    -9.626536    9.024100    4.873346    9.521624    -1.619778    -2.283744    -4.799644    -11.632282    -18.380917    0.000000    0.000000    0.000000    
-0.481186    91.852272    4.185517    -3.269916    1.371558    178.255768    -3.889854    -6.763280    -0.317293    3.791727    2.568836    -0.173188    -4.029102    13.805550    -5.639865    5.031165    -0.045535    -5.058987    14.014488    0.795907    -1.445823    -20.207718    6.200154    -5.314647    1.471215    -4.243673    -2.041885    5.230421    -4.126007    2.009151    -15.107650    1.472542    0.586057    13.913956    5.194316    10.193388    -2.095261    -1.376942    -2.759254    -1.692582    -1.566559    9.404194    -2.710296    8.682197    1.817031    -3.498144    -1.060375    -1.829801    3.679945    -6.513070    14.437188    0.000000    0.000000    0.000000    -9.620031    9.049138    4.878694    9.520067    -1.623106    -2.272727    -4.775481    -11.638254    -18.415041    0.000000    0.000000    0.000000    
